<svg width="220" height="140" viewBox="0 0 220 140" xmlns="http://www.w3.org/2000/svg" style="background:#ffffff; border:1px solid #e2e8f0; border-radius:8px; display:block; margin:0 auto;">
  <defs>
    <pattern id="hatch2" width="6" height="6" patternTransform="rotate(45 0 0)" patternUnits="userSpaceOnUse">
      <line x1="0" y1="0" x2="0" y2="6" stroke="#cbd5e1" stroke-width="1" />
    </pattern>
  </defs>
  
  <!-- Incline Plane Triangle -->
  <polygon points="30,110 170,110 170,35" fill="#f8fafc" stroke="#334155" stroke-width="2" stroke-linejoin="round"/>
  <rect x="30" y="110" width="140" height="6" fill="url(#hatch2)"/>
  
  <!-- Angle θ -->
  <path d="M 60 110 A 30 30 0 0 0 54 97" fill="none" stroke="#64748b" stroke-width="1.5"/>
  <text x="68" y="105" font-family="Inter, system-ui, sans-serif" font-size="9" fill="#475569" font-weight="bold">30°</text>
  
  <!-- Block m on incline -->
  <g transform="translate(100, 72.8) rotate(-28.2)">
    <rect x="-16" y="-12" width="32" height="24" fill="#eff6ff" stroke="#2563eb" stroke-width="2" rx="2"/>
    <text x="0" y="4" font-family="Inter, system-ui, sans-serif" font-size="10" fill="#1e40af" text-anchor="middle" font-weight="bold">m</text>
    <!-- String from block -->
    <line x1="16" y1="0" x2="90" y2="0" stroke="#475569" stroke-width="1.5"/>
  </g>
  
  <!-- Pulley -->
  <circle cx="178" cy="30" r="10" fill="#f1f5f9" stroke="#334155" stroke-width="2"/>
  <circle cx="178" cy="30" r="3" fill="#334155"/>
  
  <!-- Hanging Mass M -->
  <line x1="188" y1="30" x2="188" y2="65" stroke="#475569" stroke-width="1.5"/>
  <rect x="176" y="65" width="24" height="24" fill="#fff1f2" stroke="#e11d48" stroke-width="2" rx="2"/>
  <text x="188" y="80" font-family="Inter, system-ui, sans-serif" font-size="10" fill="#9f1239" text-anchor="middle" font-weight="bold">M</text>
</svg>