<svg width="220" height="140" viewBox="0 0 220 140" xmlns="http://www.w3.org/2000/svg" style="background:#ffffff; border:1px solid #e2e8f0; border-radius:8px; display:block; margin:0 auto;">
  <defs>
    <marker id="darrow" viewBox="0 0 10 10" refX="5" refY="5" markerWidth="6" markerHeight="6" orient="auto-start-reverse">
      <path d="M 5 0 L 10 5 L 5 10 M 5 0 L 0 5 L 5 10" fill="none" stroke="#f43f5e" stroke-width="1.5"/>
    </marker>
  </defs>
  
  <!-- Axes -->
  <line x1="30" y1="120" x2="200" y2="120" stroke="#334155" stroke-width="1.5"/>
  <line x1="30" y1="15" x2="30" y2="120" stroke="#334155" stroke-width="1.5"/>
  <text x="200" y="132" font-family="Inter, system-ui, sans-serif" font-size="8" fill="#475569" text-anchor="end">Reaction Coordinate</text>
  <text x="12" y="15" font-family="Inter, system-ui, sans-serif" font-size="8" fill="#475569" transform="rotate(-90,12,15)" text-anchor="end">Potential Energy</text>
  
  <!-- PE Profile Path -->
  <path d="M 30,85 C 60,85 75,30 95,30 C 115,30 135,100 185,100" fill="none" stroke="#4f46e5" stroke-width="2.5"/>
  
  <!-- Reactants and Products labels -->
  <text x="45" y="80" font-family="Inter, system-ui, sans-serif" font-size="9" fill="#1e293b" font-weight="bold">Reactants (A)</text>
  <text x="180" y="94" font-family="Inter, system-ui, sans-serif" font-size="9" fill="#1e293b" font-weight="bold" text-anchor="end">Products (B)</text>
  
  <!-- Activation Energy E_act -->
  <line x1="95" y1="30" x2="95" y2="85" stroke="#f43f5e" stroke-width="1" stroke-dasharray="2,2"/>
  <line x1="45" y1="85" x2="110" y2="85" stroke="#94a3b8" stroke-width="1" stroke-dasharray="2,2"/>
  
  <!-- E_act double-headed arrow -->
  <line x1="95" y1="33" x2="95" y2="82" stroke="#ef4444" stroke-width="1.5" marker-start="url(#darrow)" marker-end="url(#darrow)"/>
  <text x="103" y="60" font-family="Inter, system-ui, sans-serif" font-size="9" fill="#b91c1c" font-weight="bold">E_act (forward)</text>
</svg>