<svg width="220" height="140" viewBox="0 0 220 140" xmlns="http://www.w3.org/2000/svg" style="background:#ffffff; border:1px solid #e2e8f0; border-radius:8px; display:block; margin:0 auto;">
  <!-- Inputs -->
  <text x="20" y="45" font-family="Inter, system-ui, sans-serif" font-size="11" fill="#333" font-weight="bold">A</text>
  <text x="20" y="95" font-family="Inter, system-ui, sans-serif" font-size="11" fill="#333" font-weight="bold">B</text>
  
  <!-- NAND Gate -->
  <g transform="translate(60, 25)">
    <!-- Body -->
    <path d="M 10 10 L 30 10 A 15 15 0 0 1 30 40 L 10 40 Z" fill="#eff6ff" stroke="#2563eb" stroke-width="2"/>
    <circle cx="48" cy="25" r="3" fill="#ffffff" stroke="#2563eb" stroke-width="2"/>
    <text x="22" y="29" font-family="Inter, system-ui, sans-serif" font-size="8" fill="#1e40af" font-weight="bold">NAND</text>
  </g>
  
  <!-- OR Gate -->
  <g transform="translate(60, 75)">
    <!-- Body -->
    <path d="M 10 10 Q 20 25 10 40 L 22 40 Q 38 25 22 10 Z" fill="#ecfdf5" stroke="#059669" stroke-width="2"/>
    <text x="20" y="29" font-family="Inter, system-ui, sans-serif" font-size="8" fill="#065f46" font-weight="bold">OR</text>
  </g>
  
  <!-- Connection lines -->
  <line x1="30" y1="42" x2="70" y2="42" stroke="#333" stroke-width="1.5"/>
  <line x1="30" y1="92" x2="70" y2="92" stroke="#333" stroke-width="1.5"/>
  
  <line x1="30" y1="42" x2="45" y2="42" stroke="#333" stroke-width="1.5"/>
  <line x1="45" y1="42" x2="45" y2="85" stroke="#333" stroke-width="1.5"/>
  <line x1="45" y1="85" x2="70" y2="85" stroke="#333" stroke-width="1.5"/>
  
  <line x1="30" y1="92" x2="40" y2="92" stroke="#333" stroke-width="1.5"/>
  <line x1="40" y1="92" x2="40" y2="50" stroke="#333" stroke-width="1.5"/>
  <line x1="40" y1="50" x2="70" y2="50" stroke="#333" stroke-width="1.5"/>
  
  <!-- Final AND gate -->
  <g transform="translate(130, 50)">
    <path d="M 10 10 L 25 10 A 15 15 0 0 1 25 40 L 10 40 Z" fill="#fffbeb" stroke="#d97706" stroke-width="2"/>
    <text x="18" y="29" font-family="Inter, system-ui, sans-serif" font-size="8" fill="#78350f" font-weight="bold">AND</text>
  </g>
  
  <!-- Connection from NAND/OR to AND -->
  <line x1="111" y1="50" x2="120" y2="50" stroke="#333" stroke-width="1.5"/>
  <line x1="120" y1="50" x2="120" y2="60" stroke="#333" stroke-width="1.5"/>
  <line x1="120" y1="60" x2="140" y2="60" stroke="#333" stroke-width="1.5"/>
  
  <line x1="88" y1="100" x2="120" y2="100" stroke="#333" stroke-width="1.5"/>
  <line x1="120" y1="100" x2="120" y2="80" stroke="#333" stroke-width="1.5"/>
  <line x1="120" y1="80" x2="140" y2="80" stroke="#333" stroke-width="1.5"/>
  
  <!-- Output -->
  <line x1="170" y1="75" x2="195" y2="75" stroke="#333" stroke-width="1.5"/>
  <text x="200" y="79" font-family="Inter, system-ui, sans-serif" font-size="11" fill="#333" font-weight="bold">Y</text>
</svg>