<?xml version="1.0" encoding="UTF-8" standalone="no"?>
<svg
   xmlns:dc="http://purl.org/dc/elements/1.1/"
   xmlns:cc="http://creativecommons.org/ns#"
   xmlns:rdf="http://www.w3.org/1999/02/22-rdf-syntax-ns#"
   xmlns:svg="http://www.w3.org/2000/svg"
   xmlns="http://www.w3.org/2000/svg"
   xmlns:sodipodi="http://sodipodi.sourceforge.net/DTD/sodipodi-0.dtd"
   xmlns:inkscape="http://www.inkscape.org/namespaces/inkscape"
   width="506.14"
   height="439.8"
   version="1.1"
   viewBox="0 0 506.14 439.8"
   id="svg1782"
   sodipodi:docname="Antibody_basic_unit.wiki.svg"
   inkscape:version="1.0.1 (3bc2e813f5, 2020-09-07)">
  <sodipodi:namedview
     pagecolor="#ffffff"
     bordercolor="#666666"
     borderopacity="1"
     objecttolerance="10"
     gridtolerance="10"
     guidetolerance="10"
     inkscape:pageopacity="0"
     inkscape:pageshadow="2"
     inkscape:window-width="2488"
     inkscape:window-height="1373"
     id="namedview921"
     showgrid="false"
     inkscape:zoom="0.9477932"
     inkscape:cx="-370.81312"
     inkscape:cy="86.859619"
     inkscape:window-x="72"
     inkscape:window-y="0"
     inkscape:window-maximized="1"
     inkscape:current-layer="svg1782"
     inkscape:document-rotation="0" />
  <defs
     id="defs1786" />
  <metadata
     id="metadata1604">
    <rdf:RDF>
      <cc:Work
         rdf:about="">
        <dc:format>image/svg+xml</dc:format>
        <dc:type
           rdf:resource="http://purl.org/dc/dcmitype/StillImage" />
        <dc:title />
      </cc:Work>
    </rdf:RDF>
  </metadata>
  <g
     fill="none"
     stroke="#474747"
     id="g1612"
     transform="translate(0,0.3650278)">
    <line
       x1="243.94"
       x2="249.78999"
       y1="218.42"
       y2="218.41"
       stroke-width="1.0792"
       id="line1606" />
    <line
       x1="222.86"
       x2="228.94"
       y1="218.47"
       y2="218.46001"
       stroke-width="1.1032"
       id="line1608" />
    <line
       x1="233.94"
       x2="238.94"
       y1="218.45"
       y2="218.44"
       id="line1610" />
  </g>
  <text
     transform="rotate(-0.12798)"
     x="227.21428"
     y="222.82324"
     fill="#474747"
     font-family="'DejaVu Sans', 'Liberation Sans', sans-serif"
     font-size="12px"
     id="text1614">S</text>
  <text
     transform="rotate(-0.12798)"
     x="237.10948"
     y="222.74097"
     fill="#474747"
     font-family="'DejaVu Sans', 'Liberation Sans', sans-serif"
     font-size="12px"
     id="text1616">S</text>
  <g
     fill="none"
     stroke="#474747"
     id="g1624"
     transform="translate(0,-0.56285576)">
    <line
       x1="244.14999"
       x2="250"
       y1="210.00999"
       y2="210"
       stroke-width="1.0792"
       id="line1618" />
    <line
       x1="223.07001"
       x2="229.14999"
       y1="210.05"
       y2="210.03999"
       stroke-width="1.1032"
       id="line1620" />
    <line
       x1="234.14999"
       x2="239.14999"
       y1="210.03"
       y2="210.02"
       id="line1622" />
  </g>
  <text
     transform="rotate(-0.12798)"
     x="237.15356"
     y="213.27023"
     fill="#474747"
     font-family="'DejaVu Sans', 'Liberation Sans', sans-serif"
     font-size="12px"
     id="text1626">S</text>
  <text
     transform="rotate(-0.12798)"
     x="227.25824"
     y="213.41499"
     fill="#474747"
     font-family="'DejaVu Sans', 'Liberation Sans', sans-serif"
     font-size="12px"
     id="text1628">S</text>
  <g
     id="g1642">
    <g
       fill="none"
       stroke="#474747"
       id="g1636">
      <line
         x1="165.44"
         x2="169.51"
         y1="188.34"
         y2="185.44"
         id="line1630" />
      <line
         x1="149.15"
         x2="153.22"
         y1="199.95"
         y2="197.05"
         id="line1632" />
      <line
         x1="157.3"
         x2="161.37"
         y1="194.15"
         y2="191.24"
         id="line1634" />
    </g>
    <text
       transform="rotate(-35.5)"
       x="9.1004763"
       y="253.03046"
       fill="#474747"
       font-family="'DejaVu Sans', 'Liberation Sans', sans-serif"
       font-size="12px"
       id="text1638">S</text>
    <text
       transform="rotate(-35.5)"
       x="19.14043"
       y="252.93216"
       fill="#474747"
       font-family="'DejaVu Sans', 'Liberation Sans', sans-serif"
       font-size="12px"
       id="text1640">S</text>
  </g>
  <g
     id="g1656">
    <g
       fill="none"
       stroke="#474747"
       id="g1650">
      <line
         x1="313.8"
         x2="317.64"
         y1="205.25"
         y2="208.45"
         id="line1644" />
      <line
         x1="298.44"
         x2="302.28"
         y1="192.44"
         y2="195.64"
         id="line1646" />
      <line
         x1="306.12"
         x2="309.96"
         y1="198.84"
         y2="202.05"
         id="line1648" />
    </g>
    <text
       transform="rotate(39.822)"
       x="366.08533"
       y="-39.800961"
       fill="#474747"
       font-family="'DejaVu Sans', 'Liberation Sans', sans-serif"
       font-size="12px"
       id="text1652">S</text>
    <text
       transform="rotate(39.822)"
       x="356.35062"
       y="-39.714176"
       fill="#474747"
       font-family="'DejaVu Sans', 'Liberation Sans', sans-serif"
       font-size="12px"
       id="text1654">S</text>
  </g>
  <path
     d="m261.28 224.13v-4c-15 0-15-4 0-4 15 1 15-3 0-4-15 0-15-4 0-4 10 2 10-2 0-4.5-7.0711-7.0711-3.0711-11.071 4.2426-3.7426 7.0711 7.0711 11.071 3.0711 2.8284-2.8284-10.607-7.0711-3.0711-14.607 2.8284-2.8284l9.2076-11.291"
     fill="none"
     stroke="#00238b"
     stroke-width="2"
     id="path1658"
     style="stroke:#947d00;stroke-opacity:1" />
  <path
     d="m118.63 111.13 30-22c2.0028-3.0852 2.021-4.8271 0-8l-13.511-19.004c-3.1535-7.045-11.157-21.828-14.489-27.996-2.6526-5.0237-6.2742-5.4162-11-3l-28 20c-1.8208 2.1168-0.93553 3.9282 0.52136 5.7865 5.4269-3.8686 11.234 4.2725 5.8071 8.1411l2.9036 4.0706 6.9741 1.167-2.334 13.948 17.421 24.423c1.6507 2.3252 2.8151 2.9867 5.7066 2.4633z"
     fill="#e8abab"
     stroke="#000"
     stroke-width="1.3333"
     id="path1660"
     style="fill:#77aadd;fill-opacity:1" />
  <path
     d="m211.28 224.13v-4c15 0 15-4 0-4-15 1-15-3 0-4 15 0 15-4 0-4-10 2-10-2 0-4.5 7.0711-7.0711 3.0711-11.071-4.2426-3.7426-7.0711 7.0711-11.071 3.0711-2.8284-2.8284 10.607-7.0711 3.0711-14.607-2.8284-2.8284l-8.4093-11.385"
     fill="none"
     stroke="#8b0000"
     stroke-width="2"
     id="path1662"
     style="stroke:#003a74;stroke-opacity:1" />
  <g
     fill="#d05252"
     stroke="#000"
     stroke-width="1.3333"
     id="g1670"
     style="fill:#77aadd;fill-opacity:1">
    <rect
       transform="rotate(-35.5)"
       x="28.824"
       y="159.05"
       width="45"
       height="108.89"
       ry="5"
       id="rect1664"
       style="fill:#77aadd;fill-opacity:1" />
    <rect
       x="181.28"
       y="224.13"
       width="47"
       height="100"
       ry="5"
       id="rect1666"
       style="fill:#77aadd;fill-opacity:1" />
    <rect
       x="181.28"
       y="324.13"
       width="47"
       height="100"
       ry="5"
       id="rect1668"
       style="fill:#77aadd;fill-opacity:1" />
  </g>
  <rect
     x="244.28"
     y="224.13"
     width="47"
     height="100"
     ry="5"
     fill="#436bdf"
     stroke-width="1.3333"
     id="rect1672"
     style="stroke:#000000;fill:#eedd88;fill-opacity:1" />
  <rect
     x="244.28"
     y="324.13"
     width="47"
     height="100"
     ry="5"
     fill="#436bdf"
     stroke-width="1.3333"
     id="rect1674"
     style="stroke:#000000;fill:#eedd88;fill-opacity:1" />
  <polyline
     transform="translate(-48.724,-15.865)"
     points="500 50 510 50 510 235 500 235"
     fill="none"
     id="polyline1676"
     style="stroke:#000000" />
  <polyline
     transform="translate(-48.724,-15.865)"
     points="500 240 510 240 510 440 500 440"
     fill="none"
     id="polyline1678"
     style="stroke:#000000" />
  <path
     d="m 354.28,111.13 -30,-22 c -2.0028,-3.0852 -2.021,-4.8271 0,-8 l 13.511,-19.004 c 3.1535,-7.045 11.157,-21.828 14.489,-27.996 2.6526,-5.0237 6.2742,-5.4162 11,-3 l 28,20 c 1.8208,2.1168 0.93553,3.9282 -0.52136,5.7865 -5.4269,-3.8686 -11.234,4.2725 -5.8071,8.1411 l -2.9036,4.0706 -6.9741,1.167 2.334,13.948 -17.421,24.423 c -1.6507,2.3252 -2.8151,2.9867 -5.7066,2.4633 z"
     fill="#a4ddef"
     id="path1686"
     style="stroke:#000000;stroke-width:1.3333;fill:#eedd88;fill-opacity:1" />
  <rect
     transform="matrix(-0.81411033,-0.58071023,-0.58071023,0.81411033,0,0)"
     x="-356.16986"
     y="-115.57996"
     width="44.999981"
     height="108.88995"
     ry="4.9999981"
     fill="#436bdf"
     id="rect1688"
     style="stroke:#000000;stroke-width:1.3333;fill:#eedd88;fill-opacity:1" />
  <path
     d="m 378.74,128.51 24.397,17.222 c 2.133,1.241 3.1599,1.3596 4.9822,-0.48943 l 15.586,-21.962 c 5.6346,-5.2752 20.005,-20.713 24.494,-26.097 1.9161,-2.1626 1.9988,-3.1459 0.38645,-5.5081 l -25.584,-18.097 c -2.7508,-0.82703 -3.8223,-0.06787 -5.2376,2.4733 l 4.0706,2.9036 -2.9036,4.0706 -4.0706,-2.9036 -5.8071,8.1411 c 1.4448,2.7274 0.40578,6.1097 -2.3211,7.5556 -2.7269,1.4459 -6.1096,0.40821 -7.5566,-2.3181 l -20.739,29.032 c -1.5839,2.403 -1.5532,3.6658 0.30384,5.9767 z"
     fill="#e4e8aa"
     id="path1690"
     style="stroke:#000000;stroke-width:1.3333;fill:#ffaabb;fill-opacity:1" />
  <rect
     transform="matrix(-0.81411033,-0.58071023,-0.58071023,0.81411033,0,0)"
     x="-416.52985"
     y="-115.67995"
     width="37.262985"
     height="109.99995"
     ry="4.9999981"
     fill="#c2cf00"
     id="rect1692"
     style="stroke:#000000;stroke-width:1.3333;fill:#ffaabb;fill-opacity:1" />
  <path
     d="m94.167 128.51-24.397 17.222c-2.133 1.241-3.1599 1.3596-4.9822-0.48943l-15.586-21.962c-5.6346-5.2752-20.005-20.713-24.494-26.097-1.9161-2.1626-1.9988-3.1459-0.38645-5.5081l25.584-18.097c2.7508-0.82703 3.8223-0.06787 5.2376 2.4733l-4.0706 2.9036 2.9036 4.0706 4.0706-2.9036 5.8071 8.1411c-1.4448 2.7274-0.40578 6.1097 2.3211 7.5556 2.7269 1.4459 6.1096 0.40821 7.5566-2.3181l20.739 29.032c1.5839 2.403 1.5532 3.6658-0.30384 5.9767z"
     fill="#abe8ab"
     stroke="#000"
     stroke-width="1.3333"
     id="path1708"
     style="fill:#97d78e;fill-opacity:1" />
  <rect
     transform="rotate(-35.5)"
     x="-31.536"
     y="158.94"
     width="37.263"
     height="110"
     ry="5"
     fill="#53d053"
     stroke="#000"
     stroke-width="1.3333"
     id="rect1716"
     style="fill:#97d78e;fill-opacity:1" />
  <circle
     transform="rotate(9.4995)"
     cx="97.6"
     cy="65.275"
     r="70"
     fill="none"
     stroke="#3b0000"
     stroke-dasharray="5, 5"
     id="circle1762"
     style="stroke:#2f2f2f;stroke-opacity:1" />
  <text
     x="464.85214"
     y="136.67244"
     font-family="'DejaVu Sans', 'Liberation Sans', sans-serif"
     font-size="18.667px"
     letter-spacing="0px"
     word-spacing="0px"
     xml:space="preserve"
     id="text1684"><tspan
       x="464.85214"
       y="136.67244"
       font-size="18.667px"
       id="tspan1682">Fab</tspan></text>
  <text
     x="391.53732"
     y="125.47204"
     font-family="'DejaVu Sans', 'Liberation Sans', sans-serif"
     font-size="24px"
     letter-spacing="0px"
     word-spacing="0px"
     xml:space="preserve"
     id="text1700"><tspan
       x="391.53732"
       y="125.47204"
       font-size="24px"
       id="tspan1698">V<tspan
   baseline-shift="sub"
   font-size="65%"
   id="tspan1696">L</tspan></tspan></text>
  <text
     x="336.60349"
     y="88.081276"
     font-family="'DejaVu Sans', 'Liberation Sans', sans-serif"
     font-size="24px"
     letter-spacing="0px"
     word-spacing="0px"
     xml:space="preserve"
     id="text1706"><tspan
       x="336.60349"
       y="88.081276"
       font-size="24px"
       id="tspan1704">V<tspan
   baseline-shift="sub"
   font-size="65%"
   id="tspan1702">H</tspan></tspan></text>
  <text
     x="57.105011"
     y="124.785"
     font-family="'DejaVu Sans', 'Liberation Sans', sans-serif"
     font-size="24px"
     letter-spacing="0px"
     word-spacing="0px"
     xml:space="preserve"
     id="text1714"><tspan
       x="57.105011"
       y="124.785"
       font-size="24px"
       id="tspan1712">V<tspan
   baseline-shift="sub"
   font-size="65%"
   id="tspan1710">L</tspan></tspan></text>
  <text
     x="106.16939"
     y="86.746048"
     xml:space="preserve"
     id="text1722"
     font-family="'DejaVu Sans', 'Liberation Sans', sans-serif"><tspan
       x="106.16939"
       y="86.746048"
       font-size="24px"
       id="tspan1720">V<tspan
   baseline-shift="sub"
   font-size="65%"
   id="tspan1718">H</tspan></tspan></text>
  <text
     x="100.14097"
     y="186.55235"
     xml:space="preserve"
     id="text1728"
     font-family="'DejaVu Sans', 'Liberation Sans', sans-serif"><tspan
       x="100.14097"
       y="186.55235"
       font-size="24px"
       id="tspan1726">C<tspan
   baseline-shift="sub"
   font-size="65%"
   id="tspan1724">L</tspan></tspan></text>
  <text
     x="345.21231"
     y="187.89867"
     xml:space="preserve"
     id="text1734"
     font-family="'DejaVu Sans', 'Liberation Sans', sans-serif"><tspan
       x="345.21231"
       y="187.89867"
       font-size="24px"
       id="tspan1732">C<tspan
   baseline-shift="sub"
   font-size="65%"
   id="tspan1730">L</tspan></tspan></text>
  <text
     x="144.90028"
     y="152.66866"
     xml:space="preserve"
     id="text1740"
     font-family="'DejaVu Sans', 'Liberation Sans', sans-serif"><tspan
       x="144.90028"
       y="152.66866"
       font-size="24px"
       id="tspan1738">C<tspan
   baseline-shift="sub"
   font-size="65%"
   id="tspan1736">H</tspan>1</tspan></text>
  <text
     x="281.76102"
     y="156.76561"
     xml:space="preserve"
     id="text1746"
     font-family="'DejaVu Sans', 'Liberation Sans', sans-serif"><tspan
       x="281.76102"
       y="156.76561"
       font-size="24px"
       id="tspan1744">C<tspan
   baseline-shift="sub"
   font-size="65%"
   id="tspan1742">H</tspan>1</tspan></text>
  <text
     x="183.37022"
     y="281.37424"
     xml:space="preserve"
     id="text1752"
     font-family="'DejaVu Sans', 'Liberation Sans', sans-serif"><tspan
       x="183.32809"
       y="281.37424"
       font-size="24px"
       id="tspan1750">C<tspan
   baseline-shift="sub"
   font-size="65%"
   id="tspan1748">H</tspan>2</tspan></text>
  <text
     x="246.3472"
     y="281.37424"
     xml:space="preserve"
     id="text1758"
     font-family="'DejaVu Sans', 'Liberation Sans', sans-serif"><tspan
       x="246.36932"
       y="281.37424"
       font-size="24px"
       id="tspan1756">C<tspan
   baseline-shift="sub"
   font-size="65%"
   id="tspan1754">H</tspan>2</tspan></text>
  <text
     x="464.85214"
     y="330.67245"
     font-size="18.667px"
     xml:space="preserve"
     id="text1766"
     font-family="'DejaVu Sans', 'Liberation Sans', sans-serif"><tspan
       x="464.85214"
       y="330.67245"
       font-size="18.667px"
       id="tspan1764">Fc</tspan></text>
  <text
     x="182.90863"
     y="375.37424"
     font-size="24px"
     xml:space="preserve"
     id="text1772"
     font-family="'DejaVu Sans', 'Liberation Sans', sans-serif"><tspan
       x="183.04326"
       y="375.37424"
       font-size="24px"
       id="tspan1770">C<tspan
   baseline-shift="sub"
   font-size="65%"
   id="tspan1768">H</tspan>3</tspan></text>
  <text
     x="246.01749"
     y="375.37424"
     font-size="24px"
     xml:space="preserve"
     id="text1778"
     font-family="'DejaVu Sans', 'Liberation Sans', sans-serif"><tspan
       x="246.21638"
       y="375.37424"
       font-size="24px"
       id="tspan1776">C<tspan
   baseline-shift="sub"
   font-size="65%"
   id="tspan1774">H</tspan>3</tspan></text>
</svg>
