<svg width="220" height="140" viewBox="0 0 220 140" xmlns="http://www.w3.org/2000/svg" style="background:#ffffff; border:1px solid #e2e8f0; border-radius:8px; display:block; margin:0 auto;">
  <!-- Cell Boundary -->
  <rect x="25" y="20" width="170" height="100" rx="50" fill="none" stroke="#475569" stroke-width="2"/>
  
  <!-- Centrioles / Poles -->
  <circle cx="30" cy="70" r="4" fill="#334155"/>
  <circle cx="190" cy="70" r="4" fill="#334155"/>
  
  <!-- Spindle fibers and separating chromosomes -->
  <!-- Left Pole Fibers & Chromosomes -->
  <line x1="30" y1="70" x2="80" y2="45" stroke="#94a3b8" stroke-dasharray="2,2" stroke-width="1"/>
  <line x1="30" y1="70" x2="80" y2="95" stroke="#94a3b8" stroke-dasharray="2,2" stroke-width="1"/>
  <!-- Chromosome pair 1 left (2 chromatids pointing back to pole) -->
  <path d="M 80,45 L 68,35 M 80,45 L 68,55" stroke="#ef4444" stroke-width="3" stroke-linecap="round"/>
  <!-- Chromosome pair 2 left -->
  <path d="M 80,95 L 68,85 M 80,95 L 68,105" stroke="#3b82f6" stroke-width="3" stroke-linecap="round"/>
  
  <!-- Right Pole Fibers & Chromosomes -->
  <line x1="190" y1="70" x2="140" y2="45" stroke="#94a3b8" stroke-dasharray="2,2" stroke-width="1"/>
  <line x1="190" y1="70" x2="140" y2="95" stroke="#94a3b8" stroke-dasharray="2,2" stroke-width="1"/>
  <!-- Chromosome pair 1 right -->
  <path d="M 140,45 L 152,35 M 140,45 L 152,55" stroke="#ef4444" stroke-width="3" stroke-linecap="round"/>
  <!-- Chromosome pair 2 right -->
  <path d="M 140,95 L 152,85 M 140,95 L 152,105" stroke="#3b82f6" stroke-width="3" stroke-linecap="round"/>
  
  <text x="110" y="115" font-family="Inter, system-ui, sans-serif" font-size="9" fill="#475569" text-anchor="middle">Homologous chromosomes separating</text>
</svg>